<svg width="876" height="395" viewBox="0 0 876 395" fill="none" xmlns="http://www.w3.org/2000/svg">
<path d="M223.023 102.404H162.86V119.593H221.564V135.81H162.86V201H145.509V84.8902H223.023V102.404ZM323.099 201H245.746V84.5659H263.26V183.973H323.099V201ZM436.88 85.0524C429.907 133.702 390.987 188.189 342.5 202.459V84.8902H359.852V174.729C393.42 150.567 411.745 126.242 419.691 85.0524H436.88ZM551.71 201H530.467L501.764 157.54L474.033 201H453.114L491.872 142.945L453.114 85.0524H474.682L502.412 128.026L530.467 85.0524H551.224L513.277 142.945L551.71 201ZM736.994 179.919C732.454 179.594 727.913 178.783 723.535 177.648C715.751 191.757 702.616 201.162 686.075 201.162C661.912 201.162 638.074 181.054 638.074 156.08C638.074 143.107 644.723 131.107 653.48 121.864C645.372 110.999 639.696 98.1877 636.29 85.0524H699.372L699.21 102.242H658.183C674.399 127.377 687.534 141.972 713.967 156.567C714.291 152.026 714.291 147.486 713.967 142.945H729.697C729.859 145.702 729.859 148.459 729.859 151.378C729.859 155.107 729.697 158.837 729.048 162.567C731.643 163.54 734.238 163.864 736.994 164.027V179.919ZM710.237 171.486C691.426 163.702 674.885 149.756 661.75 134.513C657.21 139.702 653.966 146.999 653.966 153.972C653.966 171.486 667.426 185.108 685.102 185.108C694.994 185.108 704.724 179.919 710.237 171.486ZM27.3103 363H9.95869V247.052H27.3103V363ZM147.565 363H130.538V297.972C111.403 281.431 94.3754 273.323 70.2129 266.512V363H53.1857V246.079C82.0509 249.971 107.024 258.08 130.538 275.756V246.89H147.565V363ZM264.997 264.242H199.32C193.806 264.242 187.482 267.161 187.482 273.485C187.482 280.134 195.266 281.593 200.455 281.593C217.807 281.593 246.672 281.593 250.402 281.593C252.996 281.593 263.051 280.783 263.051 284.837C263.051 285.485 263.051 286.945 262.888 287.594C252.834 325.054 208.239 358.946 170.292 363V345.324C178.401 345.324 186.347 342.405 193.482 339C203.536 334.135 238.564 310.783 238.564 299.594C238.564 298.945 237.915 298.134 237.429 297.81L207.428 297.972C189.914 298.134 170.292 295.702 170.292 273.323C170.292 259.701 182.293 247.052 196.239 247.052H264.997V264.242ZM376.938 264.242H338.343V363H321.154V264.242H282.396V247.052H376.938V264.242ZM414.009 363H396.658V247.052H414.009V363ZM530.697 264.242H492.102V363H474.912V264.242H436.155V247.052H530.697V264.242ZM644.796 247.052C637.823 295.702 598.903 350.189 550.416 364.459V246.89H567.768V336.729C601.336 312.567 619.66 288.242 627.606 247.052H644.796ZM755.085 264.242H716.49V363H699.301V264.242H660.543V247.052H755.085V264.242ZM869.347 264.242H791.832V281.593H867.563V297.81H791.832V345.811H869.185V363H774.805V247.052H869.347V264.242Z" fill="#C2C2C2"/>
<path d="M321.267 4.35375C321.267 12.0638 317.622 21.1933 311.46 26C309.783 24.3548 308.331 22.4837 307.105 20.5159C305.75 22.5482 304.202 24.4838 302.266 26L302.137 25.9032C295.976 21.2901 292.459 11.967 292.459 4.32149C292.459 3.86985 292.459 3.38596 292.492 2.93432H295.976C295.943 3.41822 295.943 3.90211 295.943 4.38601C295.943 10.2573 298.298 17.0641 302.266 21.4191C306.492 16.7415 309.009 9.1927 308.557 2.93432H312.009C312.041 3.41822 312.041 3.90211 312.041 4.38601C312.041 8.83785 310.88 13.2574 308.944 17.2254C309.686 18.6771 310.525 20.0965 311.493 21.3869C315.686 16.677 318.17 9.22496 317.751 2.93432H321.235C321.267 3.41822 321.267 3.90211 321.267 4.35375ZM372.758 26H369.274V13.0316C369.274 13.0316 359.435 13.0316 359.112 13.0316C357.338 17.5802 357.338 21.2256 357.338 26H353.854V22.516C353.854 16.806 355.563 11.1283 358.693 6.35385H353.95V2.93432H372.758V26ZM369.274 6.35385H362.951C362.112 7.45068 361.306 8.57977 360.628 9.80564H369.274V6.35385ZM426.133 26.0323H422.326C421.713 25.0645 418.391 19.3868 417.842 19.1609C417.713 19.2255 417.584 19.29 417.455 19.3868C416.874 19.7739 416.326 20.3223 415.745 20.7739C413.648 22.4514 409.551 25.5484 406.938 26.0323V2.93432H425.455C425.552 2.93432 425.649 2.96658 425.649 3.09562C425.649 7.12808 420.165 16.1931 420.165 16.3544C420.165 16.806 425.423 24.8709 426.133 26.0323ZM421.423 6.38611H410.39V20.6772C415.165 17.5802 420.004 11.967 421.423 6.38611ZM478.122 26H474.734V13.0639C470.928 9.77338 467.541 8.16039 462.734 6.80549V26H459.347V2.74077C465.089 3.515 470.057 5.12798 474.734 8.64429V2.90206H478.122V26ZM531.129 6.35385H515.709V9.80564H530.774V13.0316H515.709V22.5805H531.097V26H512.322V2.93432H531.129V6.35385ZM584.554 26.0323H580.748C580.135 25.0645 576.812 19.3868 576.264 19.1609C576.135 19.2255 576.006 19.29 575.877 19.3868C575.296 19.7739 574.748 20.3223 574.167 20.7739C572.07 22.4514 567.973 25.5484 565.36 26.0323V2.93432H583.877C583.974 2.93432 584.071 2.96658 584.071 3.09562C584.071 7.12808 578.586 16.1931 578.586 16.3544C578.586 16.806 583.845 24.8709 584.554 26.0323ZM579.845 6.38611H568.812V20.6772C573.586 17.5802 578.425 11.967 579.845 6.38611Z" fill="#C2C2C2"/>
</svg>
